PathFileType	4	(X/Y/Z)	G:\マイドライブ\biomec\experimentalData\240725\CJ3.trc
DataRate	CameraRate	NumFrames	NumMarkers	Units	OrigDataRate	OrigDataStartFrame	OrigNumFrames
200.00	200.00	      4	52	mm	200.00	417	      1667
Frame#	Time	handR			wrRI			wrRO			elbRI			elbRO			shRF			shRU			shRB			handL			wrLI			wrLO			elbLI			elbLO			shLF			shLU			shLB			toeR			baRI			baRO			heelR			anRI			anRO			knRI			knRO			troR			toeL			baLI			baLO			heelL			anLI			anLO			knLI			knLO			troL			head			earR			earL			clav			c7			ribR			ribL			xiph			ASISR			ASISL			PSISR			PSISL			t8			t11			L1			L3			LS			COX			
		X1	Y1	Z1	X2	Y2	Z2	X3	Y3	Z3	X4	Y4	Z4	X5	Y5	Z5	X6	Y6	Z6	X7	Y7	Z7	X8	Y8	Z8	X9	Y9	Z9	X10	Y10	Z10	X11	Y11	Z11	X12	Y12	Z12	X13	Y13	Z13	X14	Y14	Z14	X15	Y15	Z15	X16	Y16	Z16	X17	Y17	Z17	X18	Y18	Z18	X19	Y19	Z19	X20	Y20	Z20	X21	Y21	Z21	X22	Y22	Z22	X23	Y23	Z23	X24	Y24	Z24	X25	Y25	Z25	X26	Y26	Z26	X27	Y27	Z27	X28	Y28	Z28	X29	Y29	Z29	X30	Y30	Z30	X31	Y31	Z31	X32	Y32	Z32	X33	Y33	Z33	X34	Y34	Z34	X35	Y35	Z35	X36	Y36	Z36	X37	Y37	Z37	X38	Y38	Z38	X39	Y39	Z39	X40	Y40	Z40	X41	Y41	Z41	X42	Y42	Z42	X43	Y43	Z43	X44	Y44	Z44	X45	Y45	Z45	X46	Y46	Z46	X47	Y47	Z47	X48	Y48	Z48	X49	Y49	Z49	X50	Y50	Z50	X51	Y51	Z51	X52	Y52	Z52	

417	2.080	545.71088	744.78937	1027.61633	485.44702	678.60016	1039.16638	470.44293	738.72607	1078.33191	316.00235	669.08978	1224.14844	347.14203	593.94537	1226.80493	612.35480	702.89075	1357.09802	563.19476	684.78027	1399.86316	504.33469	705.38953	1396.26880	601.26953	1130.25854	1081.18005	563.15540	1207.32788	1120.51697	545.43152	1137.27759	1146.45142	451.24677	1216.34131	1331.77234	512.03491	1272.65930	1344.20764	690.07220	1017.61884	1412.60046	655.11963	1045.68774	1466.66260	579.04657	1045.98633	1451.42859	663.33612	754.18616	45.56816	597.96948	823.86011	37.21684	538.39978	711.73120	36.48957	394.23303	854.67896	45.34594	491.87149	860.05444	115.98770	441.93942	776.67462	109.11923	560.74982	872.71106	472.95206	534.01532	771.20612	482.15466	507.54633	800.05261	880.04834	681.22394	1114.34729	74.48692	612.88000	1063.04761	69.70535	581.49817	1170.74976	65.33394	398.12521	1098.93811	59.41558	496.31985	1060.29407	154.16562	466.40771	1149.23633	131.09717	563.81891	1031.65137	495.78241	575.64215	1142.04309	504.17242	557.30011	1136.75366	898.69861	821.71033	773.27026	1601.99658	716.66931	736.44171	1449.17896	769.47345	886.30615	1456.94910	675.02869	862.00903	1362.77991	595.35236	861.58539	1482.59985	578.78772	831.33826	1086.90552	611.70221	1050.81836	1118.99951	666.56805	898.78033	1210.97998	591.30853	847.14459	958.10510	612.86304	1059.98438	995.88940	430.42798	911.81244	1019.25677	447.01859	1029.99573	1035.95630	463.71796	929.15735	1298.75378	450.65701	949.76990	1169.39380	452.83841	959.73346	1109.29956	445.42758	964.00104	1059.19763	426.83868	973.15497	1021.93573	390.52054	991.30786	920.12225	
418	2.085	546.11316	746.47351	1028.56433	486.30637	679.75745	1039.81409	470.87326	739.66852	1079.34729	317.00745	668.57019	1224.58923	348.36063	593.69354	1227.07581	613.23676	703.57684	1357.85974	564.09607	685.42236	1400.62927	504.92825	705.72357	1396.83179	600.03412	1128.44189	1081.80176	562.18933	1205.89844	1120.17590	544.21643	1136.12366	1146.76685	450.40533	1216.82458	1331.42688	511.36948	1273.32043	1343.23743	689.40668	1018.67352	1412.64050	654.47156	1046.87598	1466.64673	578.51428	1046.94397	1451.27686	663.34467	754.19788	45.58129	597.96478	823.88849	37.21277	538.36511	711.72125	36.50045	394.21869	854.67847	45.34114	491.83951	860.02966	116.00980	441.94189	776.65985	109.10011	560.24670	872.71228	473.09198	533.59875	771.24597	482.16989	507.70181	799.45386	880.19482	684.19482	1110.06677	75.83125	616.49890	1058.31543	70.66042	584.78925	1167.21753	65.31929	401.08511	1096.35474	57.43848	498.63696	1057.23340	153.78433	468.94522	1146.37744	130.05458	561.56982	1029.67065	495.77277	574.63550	1140.01807	503.93033	557.11719	1136.05420	898.51398	821.97778	775.54120	1602.74878	717.21857	737.78668	1449.97571	769.33252	887.75946	1457.50110	675.15552	862.93329	1363.30322	595.29840	862.59589	1483.11877	579.09381	831.23663	1087.31580	611.24408	1050.86292	1118.95557	666.66443	899.31329	1211.34351	591.54327	846.68243	958.55695	611.37286	1062.69958	995.69135	430.52841	911.23212	1019.42932	446.92215	1029.49805	1035.94568	463.64066	929.14026	1298.95813	450.57129	949.49377	1169.51672	452.75522	959.43854	1109.36890	445.48843	963.49249	1059.18115	426.85870	972.69189	1021.93835	390.48575	990.56573	920.19092	
419	2.090	546.55450	747.82605	1029.64807	487.32248	680.93030	1040.47485	471.32129	740.60309	1080.15332	317.73807	668.38879	1225.17188	349.57236	593.76825	1227.43005	613.72272	704.27484	1358.39209	564.73859	685.85748	1401.33093	505.54474	706.29626	1397.52112	598.74072	1126.41724	1082.37036	561.15857	1204.32544	1119.64319	542.99341	1134.90723	1147.11951	449.38763	1217.66296	1330.93701	510.75955	1274.04285	1342.14026	688.99103	1020.02277	1412.87354	653.90912	1047.96704	1466.61938	577.87292	1047.86414	1451.09802	663.33441	754.21429	45.58484	597.98718	823.91132	37.19795	538.43127	711.78766	36.51382	394.21530	854.69989	45.32826	491.78259	860.05450	116.03207	441.96014	776.65491	109.10397	559.64923	872.76239	473.16254	533.19690	771.29840	482.17517	507.89920	798.77356	880.31036	686.88702	1105.90137	76.94675	619.32446	1054.07214	72.11629	587.96021	1163.66711	65.39874	404.09109	1093.84241	55.65649	500.16583	1054.42871	153.26781	471.57663	1143.76331	128.83939	559.74274	1028.04053	495.83530	573.67902	1138.39380	503.84174	556.97345	1135.58765	898.30127	822.49976	778.05786	1603.46851	717.82019	739.25916	1450.84363	769.34448	889.71472	1457.96570	675.16858	863.85284	1363.80493	595.20056	863.61786	1483.55676	579.44476	831.18378	1087.71399	610.91785	1050.96204	1118.85803	666.77191	899.75519	1211.69849	591.83185	846.38617	959.01904	611.97821	1061.73047	995.37006	430.51703	910.71307	1019.61072	446.81686	1028.96912	1035.92432	463.61731	929.21063	1299.10925	450.51770	949.30023	1169.63660	452.64633	959.06964	1109.45374	445.44522	963.07849	1059.24939	426.92712	972.10681	1021.94714	390.39322	989.84576	920.27081	
420	2.095	546.88007	749.50665	1030.75403	488.07639	682.25806	1041.13733	471.69781	741.81006	1081.02979	318.42938	668.36987	1225.79224	350.72867	593.68073	1227.72583	614.36615	705.03717	1359.30176	565.31653	686.66040	1402.11963	506.20300	706.75488	1398.09436	598.12018	1124.47974	1082.97693	560.37622	1202.85803	1119.24976	542.17102	1133.58374	1147.66565	448.68384	1218.14465	1330.33228	509.92612	1274.80811	1341.03748	688.65741	1021.34650	1413.15027	653.29883	1049.44568	1466.46558	577.21222	1048.69531	1450.99255	663.32874	754.24390	45.60925	597.99316	823.93500	37.15923	538.43274	711.77838	36.57519	394.21848	854.70502	45.28481	491.74194	860.09045	116.02707	441.93878	776.69922	109.06501	559.10797	872.71588	473.17526	532.73877	771.36401	482.21075	508.12994	798.23102	880.40887	689.53107	1101.55090	77.97514	621.88831	1049.96790	72.67632	591.32880	1160.08606	65.14371	406.80756	1091.40967	54.19106	502.09961	1051.58521	152.72845	474.03418	1141.17346	127.54653	557.79480	1026.16479	495.88126	572.69806	1136.45447	503.54611	556.96332	1135.05981	898.10834	822.79938	780.50568	1604.26550	718.58417	740.99298	1451.59973	769.21753	891.40558	1458.40845	675.17261	864.96423	1364.22314	595.23248	864.82001	1483.80811	579.74255	831.10211	1088.07666	610.59796	1051.08887	1118.76233	666.93835	900.28174	1212.04883	592.02985	846.15729	959.41656	612.33051	1060.91943	995.17822	430.58594	910.28662	1019.70575	446.69327	1028.52014	1035.90027	463.56985	929.30334	1299.25232	450.47607	949.15533	1169.70923	452.53470	958.70911	1109.52271	445.45325	962.70160	1059.28552	426.91891	971.42975	1021.97430	390.33911	989.26257	920.33496	
